<svg viewBox="0 0 540 140" data-background-color="#ffffff" preserveAspectRatio="xMidYMid meet" height="140" width="540" xmlns="http://www.w3.org/2000/svg" xmlns:xlink="http://www.w3.org/1999/xlink"><svg viewBox="0 0 668.750970166933 226.18018460799453" height="133.76995414873699" width="395.52"><g transform="matrix(1,0,0,1,273.23097016693305,63.26420407421269)"><svg viewBox="0 0 395.52 99.65177645956915" height="99.65177645956915" width="395.52"><g id="textblocktransform"><svg viewBox="0 0 395.52 99.65177645956915" height="99.65177645956915" width="395.52" id="textblock"><g><svg viewBox="0 0 395.52 99.65177645956915" height="99.65177645956915" width="395.52"><g transform="matrix(1,0,0,1,0,0)"><svg width="395.52" viewBox="0.9500000476837158 -36 160.0800018310547 40.349998474121094" height="99.65177645956915" data-palette-color="#e65728"><g class="undefined-text-0" data-fill-palette-color="primary" id="text-0"><path d="M6.5 4.35L6.5 4.35Q3.75 4.35 2.35 3.43 0.95 2.5 0.95 0.35L0.95 0.35Q0.95 0.2 1.2 0.2L1.2 0.2Q1.55 0.2 2.45 0.45 3.35 0.7 5.9 0.7L5.9 0.7Q10.2 0.7 13.85-0.28 17.5-1.25 20.18-2.95 22.85-4.65 24.33-6.78 25.8-8.9 25.8-11.15L25.8-11.15Q25.8-13.2 24.65-14.45 23.5-15.7 21.63-16.35 19.75-17 17.55-17.23 15.35-17.45 13.2-17.45L13.2-17.45Q12.25-17.45 11.28-17.43 10.3-17.4 9.45-17.4L9.45-17.4Q8.3-13.35 7.2-9.25 6.1-5.15 4.95-1.3L4.95-1.3Q3.7-1.3 2.85-2 2-2.7 2-3.7L2-3.7Q2-4.3 2.25-5.1 2.5-5.9 2.7-6.55L2.7-6.55Q3-7.55 3.75-9.9 4.5-12.25 5.58-15.4 6.65-18.55 7.95-22 9.25-25.45 10.63-28.75 12-32.05 13.3-34.6L13.3-34.6Q11.2-34.25 9.78-33.6 8.35-32.95 7.55-32.43 6.75-31.9 6.4-31.9L6.4-31.9Q6.15-31.9 5.78-32.13 5.4-32.35 5.1-32.68 4.8-33 4.8-33.25L4.8-33.25Q7.3-34.3 10.03-35.15 12.75-36 16.65-36L16.65-36Q18.3-36 20.3-35.73 22.3-35.45 24.1-34.63 25.9-33.8 27.05-32.23 28.2-30.65 28.2-28.05L28.2-28.05Q28.2-25.6 27.15-23.88 26.1-22.15 24.4-21.03 22.7-19.9 20.7-19.25 18.7-18.6 16.75-18.3L16.75-18.3Q20.45-18.1 22.73-17.25 25-16.4 26.18-15.23 27.35-14.05 27.75-12.75 28.15-11.45 28.15-10.25L28.15-10.25Q28.15-7.35 26.65-5 25.15-2.65 22.7-0.9 20.25 0.85 17.35 2.02 14.45 3.2 11.6 3.78 8.75 4.35 6.5 4.35ZM9.75-18.55L9.75-18.55Q12.5-18.65 15.23-19.18 17.95-19.7 20.2-20.85 22.45-22 23.83-23.85 25.2-25.7 25.2-28.45L25.2-28.45Q25.2-31.05 23.98-32.45 22.75-33.85 20.83-34.4 18.9-34.95 16.75-34.95L16.75-34.95Q16.5-34.95 16.28-34.95 16.05-34.95 15.8-34.9L15.8-34.9Q14-31.4 12.53-27.2 11.05-23 9.75-18.55ZM39.05 1.3L39.05 1.3Q37.35 1.3 36.37 0.4 35.4-0.5 35.4-1.95L35.4-1.95Q35.4-3.45 36.1-5.1 36.8-6.75 37.47-8.38 38.15-10 38.15-11.3L38.15-11.3Q38.15-12.9 37.22-13.68 36.3-14.45 35.35-15.1L35.35-15.1Q34.2-12.15 32.95-9.5 31.7-6.85 30.9-5.5L30.9-5.5 30.45-6.35Q31.15-7.65 32.27-10.15 33.4-12.65 34.5-15.85L34.5-15.85Q34-16.35 34-17.05L34-17.05Q34-18.55 34.85-19.5 35.7-20.45 36.1-20.45L36.1-20.45Q36.65-20.45 36.72-19.98 36.8-19.5 36.8-19.25L36.8-19.25Q36.8-19 36.52-18.28 36.25-17.55 36.25-17.4L36.25-17.4Q36.25-16.7 37.02-16.13 37.8-15.55 38.8-14.83 39.8-14.1 40.57-13.08 41.35-12.05 41.35-10.45L41.35-10.45Q41.35-8.95 40.72-7.4 40.1-5.85 39.47-4.45 38.85-3.05 38.85-2L38.85-2Q38.85-1.1 39.3-0.8 39.75-0.5 40.35-0.5L40.35-0.5Q41.55-0.5 42.82-1.25 44.1-2 45.3-3.15 46.5-4.3 47.45-5.58 48.4-6.85 48.85-7.95L48.85-7.95 49.5-7.45Q48.55-5.35 46.9-3.33 45.25-1.3 43.22 0 41.2 1.3 39.05 1.3ZM51.4 1.3L51.4 1.3Q49.45 1.3 48.5 0.08 47.55-1.15 47.55-2.9L47.55-2.9Q47.55-4.05 47.97-5.8 48.4-7.55 49.09-9.47 49.8-11.4 50.72-13.1 51.65-14.8 52.7-15.88 53.75-16.95 54.75-16.95L54.75-16.95Q55.2-16.95 55.52-16.68 55.84-16.4 55.84-15.85L55.84-15.85Q55.84-15.25 55.07-13.9 54.3-12.55 53.25-10.8 52.2-9.05 51.42-7.13 50.65-5.2 50.65-3.45L50.65-3.45Q50.65-1.65 51.25-1.05 51.84-0.45 53.09-0.45L53.09-0.45Q54.8-0.45 56.72-2.15 58.65-3.85 60.8-8.1L60.8-8.1 61.25-7.6Q59.8-3.3 57.07-1 54.34 1.3 51.4 1.3ZM57.4-21.6L57.4-21.6Q56.59-21.6 55.97-22 55.34-22.4 55.34-23.25L55.34-23.25Q55.34-24.3 56.57-25.08 57.8-25.85 59-25.85L59-25.85Q59.75-25.85 60.2-25.5 60.65-25.15 60.65-24.3L60.65-24.3Q60.65-23.35 59.62-22.48 58.59-21.6 57.4-21.6ZM63.99 1.5L63.99 1.5Q61.84 1.5 60.92 0.03 59.99-1.45 59.99-3.65L59.99-3.65Q59.99-6.05 60.89-9.35 61.79-12.65 63.27-16.3 64.74-19.95 66.49-23.43 68.24-26.9 69.99-29.75 71.74-32.6 73.22-34.3 74.69-36 75.54-36L75.54-36Q76.09-36 76.44-35.38 76.79-34.75 76.99-33.88 77.19-33 77.19-32.3L77.19-32.3Q77.19-30.95 76.52-28.78 75.84-26.6 74.62-23.93 73.39-21.25 71.72-18.53 70.04-15.8 68.07-13.3 66.09-10.8 63.89-9L63.89-9Q63.59-7.65 63.42-6.38 63.24-5.1 63.24-3.95L63.24-3.95Q63.24-2 63.79-1.05 64.34-0.1 65.44-0.1L65.44-0.1Q66.79-0.1 68.12-1.3 69.44-2.5 70.62-4.33 71.79-6.15 72.64-8.1L72.64-8.1 73.39-7.7Q71.39-3.45 69.04-0.98 66.69 1.5 63.99 1.5ZM64.34-10.7L64.34-10.7Q66.09-12.45 67.74-14.73 69.39-17 70.82-19.45 72.24-21.9 73.34-24.2 74.44-26.5 75.04-28.33 75.64-30.15 75.64-31.15L75.64-31.15Q75.64-31.65 75.52-31.8 75.39-31.95 75.29-31.95L75.29-31.95Q74.89-31.95 73.92-30.68 72.94-29.4 71.64-27.25 70.34-25.1 68.99-22.35 67.64-19.6 66.42-16.6 65.19-13.6 64.34-10.7ZM75.79 1.5L75.79 1.5Q73.64 1.5 72.72 0.03 71.79-1.45 71.79-3.65L71.79-3.65Q71.79-6.05 72.69-9.35 73.59-12.65 75.06-16.3 76.54-19.95 78.29-23.43 80.04-26.9 81.79-29.75 83.54-32.6 85.02-34.3 86.49-36 87.34-36L87.34-36Q87.89-36 88.24-35.38 88.59-34.75 88.79-33.88 88.99-33 88.99-32.3L88.99-32.3Q88.99-30.95 88.31-28.78 87.64-26.6 86.42-23.93 85.19-21.25 83.52-18.53 81.84-15.8 79.86-13.3 77.89-10.8 75.69-9L75.69-9Q75.39-7.65 75.22-6.38 75.04-5.1 75.04-3.95L75.04-3.95Q75.04-2 75.59-1.05 76.14-0.1 77.24-0.1L77.24-0.1Q78.59-0.1 79.92-1.3 81.24-2.5 82.42-4.33 83.59-6.15 84.44-8.1L84.44-8.1 85.19-7.7Q83.19-3.45 80.84-0.98 78.49 1.5 75.79 1.5ZM76.14-10.7L76.14-10.7Q77.89-12.45 79.54-14.73 81.19-17 82.62-19.45 84.04-21.9 85.14-24.2 86.24-26.5 86.84-28.33 87.44-30.15 87.44-31.15L87.44-31.15Q87.44-31.65 87.31-31.8 87.19-31.95 87.09-31.95L87.09-31.95Q86.69-31.95 85.72-30.68 84.74-29.4 83.44-27.25 82.14-25.1 80.79-22.35 79.44-19.6 78.22-16.6 76.99-13.6 76.14-10.7ZM85.84 2.35L85.84 2.35Q84.29 2.35 83.21 1.33 82.14 0.3 82.14-1.8L82.14-1.8Q82.14-3.6 82.94-5.68 83.74-7.75 85.14-9.78 86.54-11.8 88.31-13.48 90.09-15.15 92.06-16.15 94.04-17.15 95.99-17.15L95.99-17.15Q97.94-17.15 99.24-16.13 100.54-15.1 100.54-13.4L100.54-13.4Q100.54-12.15 99.86-11.7 99.19-11.25 98.09-11.25L98.09-11.25Q98.19-11.65 98.26-12.13 98.34-12.6 98.34-13L98.34-13Q98.34-14.15 97.79-14.98 97.24-15.8 95.89-15.8L95.89-15.8Q94.49-15.8 93.04-14.83 91.59-13.85 90.24-12.23 88.89-10.6 87.84-8.7 86.79-6.8 86.19-4.95 85.59-3.1 85.59-1.65L85.59-1.65Q85.59 0.3 86.94 0.3L86.94 0.3Q88.09 0.3 89.44-0.78 90.79-1.85 92.21-3.53 93.64-5.2 94.94-7 96.24-8.8 97.24-10.3L97.24-10.3Q97.44-10.6 97.49-10.6L97.49-10.6Q97.79-10.55 98.26-10.4 98.74-10.25 99.09-10 99.44-9.75 99.44-9.35L99.44-9.35Q99.44-8.9 98.99-8.13 98.54-7.35 97.99-6.35 97.44-5.35 96.99-4.33 96.54-3.3 96.54-2.4L96.54-2.4Q96.54-1.65 96.94-0.93 97.34-0.2 98.24-0.2L98.24-0.2Q99.59-0.2 101.79-2.18 103.99-4.15 106.24-8.1L106.24-8.1 106.74-7.6Q105.69-4.9 104.04-2.85 102.39-0.8 100.51 0.35 98.64 1.5 96.84 1.5L96.84 1.5Q94.99 1.5 94.11 0.4 93.24-0.7 93.24-2L93.24-2Q93.24-2.3 93.29-2.68 93.34-3.05 93.39-3.45L93.39-3.45Q91.24-0.55 89.46 0.9 87.69 2.35 85.84 2.35ZM121.39 1L121.39 1Q119.64 1 118.76 0.1 117.89-0.8 117.89-2.2L117.89-2.2Q117.89-3.25 118.26-4.4 118.64-5.55 118.98-6.78 119.34-8 119.34-9.15L119.34-9.15Q119.34-10.55 118.76-11.08 118.19-11.6 117.34-11.6L117.34-11.6Q115.78-11.6 114.19-10.33 112.58-9.05 111.08-7.08 109.58-5.1 108.28-3 106.98-0.9 105.98 0.75L105.98 0.75Q105.19 0.75 104.46 0.48 103.73 0.2 103.33-0.35L103.33-0.35Q103.33-0.6 103.86-1.9 104.39-3.2 105.08-5.1 105.78-7 106.33-9 106.89-11 106.89-12.65L106.89-12.65Q107.19-13 107.83-13.35 108.48-13.7 109.19-13.7L109.19-13.7Q110.53-13.7 110.53-12.4L110.53-12.4Q110.53-11.6 110.08-9.73 109.64-7.85 108.94-5.8L108.94-5.8Q110.28-7.85 111.96-9.88 113.64-11.9 115.53-13.25 117.44-14.6 119.34-14.6L119.34-14.6Q121.28-14.6 122.16-13.2 123.03-11.8 123.03-10.1L123.03-10.1Q123.03-8.55 122.53-7.23 122.03-5.9 121.51-4.67 120.98-3.45 120.98-2.2L120.98-2.2Q120.98-1.15 121.41-0.73 121.84-0.3 122.48-0.3L122.48-0.3Q123.73-0.3 124.98-1.48 126.23-2.65 127.41-4.45 128.59-6.25 129.49-8.1L129.49-8.1 130.03-7.45Q128.99-5 127.69-3.1 126.39-1.2 124.84-0.1 123.28 1 121.39 1ZM132.78 2.3L132.78 2.3Q130.63 2.3 129.48 1.05 128.33-0.2 128.33-2.65L128.33-2.65Q128.33-4.85 129.16-8.08 129.98-11.3 131.23-14.7L131.23-14.7Q130.73-14.8 130.28-14.88 129.83-14.95 129.43-15.1L129.43-15.1 129.43-16Q129.83-15.95 130.38-15.9 130.93-15.85 131.63-15.8L131.63-15.8Q132.68-18.5 133.88-21.03 135.08-23.55 136.26-25.53 137.43-27.5 138.51-28.68 139.58-29.85 140.33-29.85L140.33-29.85Q140.73-29.85 141.06-29.58 141.38-29.3 141.38-28.75L141.38-28.75Q141.38-27.9 140.33-25.98 139.28-24.05 137.73-21.4 136.18-18.75 134.73-15.65L134.73-15.65Q135.18-15.65 135.66-15.65 136.13-15.65 136.58-15.65L136.58-15.65Q138.23-15.65 140.06-15.7 141.88-15.75 143.73-15.95L143.73-15.95 143.73-15.05Q140.98-14.75 138.81-14.6 136.63-14.45 134.93-14.45L134.93-14.45Q134.73-14.45 134.56-14.45 134.38-14.45 134.18-14.45L134.18-14.45Q133.03-11.8 132.23-9 131.43-6.2 131.43-3.55L131.43-3.55Q131.43-1.4 132.08-0.48 132.73 0.45 134.23 0.45L134.23 0.45Q136.83 0.45 139.33-1.85 141.83-4.15 143.73-8.1L143.73-8.1 144.38-7.6Q143.18-4.8 141.36-2.55 139.53-0.3 137.33 1 135.13 2.3 132.78 2.3ZM148.18 2.2L148.18 2.2Q145.13 2.2 143.6 0.53 142.08-1.15 142.08-3.6L142.08-3.6Q142.08-5.85 143.21-8.35 144.33-10.85 146.21-13.05 148.08-15.25 150.33-16.63 152.58-18 154.78-18L154.78-18Q155.93-18 156.91-17.4 157.88-16.8 157.88-14.95L157.88-14.95Q157.88-13.05 156.75-11.38 155.63-9.7 153.81-8.4 151.98-7.1 149.81-6.28 147.63-5.45 145.48-5.25L145.48-5.25Q145.38-4.75 145.33-4.3 145.28-3.85 145.28-3.45L145.28-3.45Q145.28-2.7 145.46-1.95 145.63-1.2 146.08-0.58 146.53 0.05 147.31 0.4 148.08 0.75 149.23 0.75L149.23 0.75Q151.38 0.75 153.48-0.48 155.58-1.7 157.38-3.7 159.18-5.7 160.43-8.1L160.43-8.1 161.03-7.65Q159.68-4.65 157.6-2.45 155.53-0.25 153.1 0.98 150.68 2.2 148.18 2.2ZM145.73-6.2L145.73-6.2Q147.08-6.65 148.78-7.53 150.48-8.4 152.06-9.6 153.63-10.8 154.66-12.25 155.68-13.7 155.68-15.3L155.68-15.3Q155.68-15.85 155.48-16.15 155.28-16.45 154.63-16.45L154.63-16.45Q153.43-16.45 152.08-15.53 150.73-14.6 149.48-13.1 148.23-11.6 147.23-9.8 146.23-8 145.73-6.2Z" fill="#e65728" data-fill-palette-color="primary"></path></g></svg></g></svg></g></svg></g></svg></g><g><svg viewBox="0 0 226.18018460799453 226.18018460799453" height="226.18018460799453" width="226.18018460799453"><g><svg></svg></g><g id="icon-0"><svg viewBox="0 0 226.18018460799453 226.18018460799453" height="226.18018460799453" width="226.18018460799453"><g><path d="M0 113.09c0-62.458 50.632-113.09 113.09-113.09 62.458 0 113.09 50.632 113.09 113.09 0 62.458-50.632 113.09-113.09 113.09-62.458 0-113.09-50.632-113.09-113.09zM113.09 217.193c57.495 0 104.103-46.609 104.103-104.103 0-57.495-46.609-104.103-104.103-104.103-57.495 0-104.103 46.609-104.103 104.103 0 57.495 46.609 104.103 104.103 104.103z" data-fill-palette-color="accent" fill="#e65728" stroke="transparent"></path></g><g transform="matrix(1,0,0,1,48.70167378898702,48.70167378898702)"><svg viewBox="0 0 128.7768370300205 128.7768370300205" height="128.7768370300205" width="128.7768370300205"><g><svg xmlns="http://www.w3.org/2000/svg" xmlns:xlink="http://www.w3.org/1999/xlink" version="1.1" x="0" y="0" viewBox="10 10 80.0999984741211 80.0999984741211" style="enable-background:new 0 0 100 100;" xml:space="preserve" height="128.7768370300205" width="128.7768370300205" class="icon-s-0" data-fill-palette-color="accent" id="s-0"><path d="M71.4 11.1c-0.7-0.7-1.6-1.1-2.7-1.1H31.3c-1 0-1.9 0.4-2.7 1.1L11.1 28.6c-0.7 0.7-1.1 1.6-1.1 2.7v37.5c0 1 0.4 1.9 1.1 2.7l17.5 17.5c0.7 0.7 1.6 1.1 2.7 1.1h37.5c1 0 1.9-0.4 2.7-1.1l17.5-17.5c0.7-0.7 1.1-1.6 1.1-2.7V31.3c0-1-0.4-1.9-1.1-2.7L71.4 11.1zM69.1 15.8l15.1 15.1-2.3 1.2-14-14L69.1 15.8zM64.1 75h-0.5H36.4h-0.5L25 64.1v-0.5V36.4v-0.5L35.9 25h0.5 27.2 0.5L75 35.9v0.5 27.2 0.5L64.1 75zM64.1 80H35.9l1.3-2.5h25.6L64.1 80zM22.5 37.2v25.6L20 64.1V35.9L22.5 37.2zM20.5 33.3l12.8-12.8 1.2 2.3c0 0 0 0 0 0L22.9 34.5c0 0 0 0 0 0L20.5 33.3zM21.1 66.4l1.8-0.9c0 0 0 0 0 0l11.6 11.6c0 0 0 0 0 0l-0.9 1.8-0.3 0.6L20.5 66.7 21.1 66.4zM35.9 20h28.2l-1.3 2.5H37.2L35.9 20zM65.5 22.8l1.2-2.3 12.8 12.8-0.6 0.3-1.8 0.9c0 0 0 0 0 0L65.5 22.8C65.5 22.9 65.5 22.8 65.5 22.8zM65.5 77.1l11.6-11.6c0 0 0 0 0 0l2.3 1.2L66.7 79.5 65.5 77.1C65.5 77.2 65.5 77.1 65.5 77.1zM77.5 62.8V37.2l2.5-1.3v28.2L77.5 62.8zM66.7 15l-1.3 2.5H34.6L33.3 15H66.7zM30.9 15.8l1.2 2.3-14 14-2.3-1.2L30.9 15.8zM15 33.3l2.5 1.3v30.8L15 66.7V33.3zM32.1 81.9l-1.2 2.3L15.8 69.1l2.3-1.2L32.1 81.9 32.1 81.9zM33.3 85l1.3-2.5h30.8l1.3 2.5H33.3zM69.1 84.2l-1.2-2.3 0-0.1 14-14 2.3 1.2L69.1 84.2zM85 66.7l-2.5-1.3V34.6l2.5-1.3V66.7z" fill="#e65728" data-fill-palette-color="accent"></path></svg></g></svg></g></svg></g></svg></g></svg>

</svg>